<svg width="1467" height="390" viewBox="0 0 1467 390" fill="none" xmlns="http://www.w3.org/2000/svg">
<path fill-rule="evenodd" clip-rule="evenodd" d="M-3 260.083L100.615 97.6877C161.354 70.0899 193 -30.0385 349.188 22.0283C464.542 70.5906 581.938 125.16 704.438 125.16C826.938 125.16 953.01 167.903 1075.51 92.1182C1198.01 16.3335 1308.26 91.7427 1369.51 70.0899L1467 0V390H1405.75C1344.5 390 1222 390 1099.5 390C977 390 854.5 390 732 390C609.5 390 487 390 364.5 390C242 390 119.5 390 58.25 390H-3V260.083Z" fill="#4371E8"/>
</svg>
